<?xml version="1.0" encoding="utf-8"?>
<!-- Generator: Adobe Illustrator 18.1.1, SVG Export Plug-In . SVG Version: 6.00 Build 0)  -->
<!DOCTYPE svg PUBLIC "-//W3C//DTD SVG 1.1//EN" "http://www.w3.org/Graphics/SVG/1.1/DTD/svg11.dtd">
<svg version="1.1" id="Layer_1" xmlns="http://www.w3.org/2000/svg" xmlns:xlink="http://www.w3.org/1999/xlink" x="0px" y="0px"
	 width="430.945px" height="195.901px" viewBox="0 0 430.945 195.901" enable-background="new 0 0 430.945 195.901"
	 xml:space="preserve">
<g>
	<path fill="#A6A8AB" d="M212.94,167.178c-9.315,0-17.142-3.197-23.482-9.593s-9.51-14.26-9.51-23.594
		c0-9.333,3.17-17.177,9.51-23.529s14.167-9.528,23.482-9.528c9.315,0,17.164,3.19,23.547,9.566
		c6.383,6.377,9.575,14.25,9.575,23.62v24.338c0,2.604-0.821,4.705-2.459,6.31c-1.638,1.607-3.751,2.409-6.338,2.409
		s-4.68-0.806-6.275-2.412c-1.597-1.61-2.394-3.718-2.394-6.325v-24.39c0-4.345-1.532-8.041-4.594-11.085
		c-3.062-3.043-6.75-4.564-11.062-4.564c-4.314,0-7.978,1.516-10.997,4.548c-3.02,3.033-4.529,6.712-4.529,11.042
		c0,4.331,1.508,8.033,4.529,11.108c3.019,3.075,6.683,4.612,10.997,4.612c0.084,0,0.168,0.001,0.251,0.003
		c2.473,0.05,4.502,0.847,6.089,2.39c1.638,1.598,2.459,3.688,2.459,6.275s-0.821,4.703-2.459,6.34
		c-1.604,1.602-3.66,2.422-6.169,2.458C213.055,167.177,212.998,167.178,212.94,167.178z"/>
	<path fill="#A6A8AB" d="M270.514,83.467v103.766c0,2.587-0.821,4.678-2.457,6.275c-1.64,1.595-3.753,2.393-6.34,2.393
		s-4.68-0.798-6.275-2.393c-1.597-1.597-2.394-3.688-2.394-6.275V83.467c0-2.587,0.798-4.678,2.394-6.275
		c1.595-1.595,3.688-2.393,6.275-2.393C267.58,74.799,270.514,77.69,270.514,83.467z"/>
	<path fill="#A6A8AB" d="M294.967,83.467v74.783c0,2.587-0.821,4.678-2.457,6.275c-1.64,1.595-3.753,2.393-6.34,2.393
		s-4.68-0.798-6.275-2.393c-1.597-1.597-2.394-3.688-2.394-6.275V83.467c0-2.587,0.798-4.678,2.394-6.275
		c1.595-1.595,3.688-2.393,6.275-2.393C292.033,74.799,294.967,77.69,294.967,83.467z"/>
	<path fill="#A6A8AB" d="M334.944,100.934c9.315,0,17.164,3.176,23.547,9.528s9.575,14.196,9.575,23.529
		c0,9.334-3.192,17.197-9.575,23.594s-14.232,9.593-23.547,9.593c-9.315,0-17.142-3.197-23.482-9.593
		c-6.34-6.397-9.51-14.26-9.51-23.594c0-9.333,3.17-17.177,9.51-23.529C317.801,104.11,325.628,100.934,334.944,100.934z
		 M334.944,118.401c-4.314,0-7.978,1.516-10.997,4.548c-3.02,3.033-4.529,6.712-4.529,11.042c0,4.331,1.508,8.033,4.529,11.108
		c3.019,3.075,6.683,4.612,10.997,4.612c4.312,0,8-1.537,11.062-4.612c3.062-3.075,4.594-6.778,4.594-11.108
		c0-4.33-1.532-8.009-4.594-11.042C342.944,119.917,339.256,118.401,334.944,118.401z"/>
	<path fill="#A6A8AB" d="M403.129,166.918c-7.937,0-14.578-2.679-19.926-8.038c-5.348-5.356-8.022-12.011-8.022-19.963v-29.299
		c0-2.591,0.797-4.686,2.394-6.285c1.595-1.598,3.688-2.399,6.275-2.399c5.864,0,8.798,2.897,8.798,8.691v29.319
		c0,2.942,1.012,5.428,3.04,7.459c2.026,2.035,4.507,3.048,7.441,3.048c2.93,0,5.389-1.014,7.374-3.048
		c1.983-2.031,2.975-4.517,2.975-7.459v-29.319c0-2.594,0.819-4.69,2.459-6.292c1.637-1.598,3.751-2.399,6.34-2.399
		c2.587,0,4.677,0.801,6.275,2.398c1.595,1.598,2.393,3.691,2.393,6.283v57.782c0,7.86-2.697,14.488-8.087,19.888
		c-5.391,5.396-12.013,8.097-19.859,8.097h-92.582c-2.587,0-4.702-0.798-6.34-2.393c-1.638-1.598-2.457-3.688-2.457-6.275
		s0.819-4.703,2.457-6.34c1.638-1.64,3.753-2.459,6.34-2.459H403c2.847,0,5.304-1.034,7.374-3.105
		c2.071-2.07,3.105-4.527,3.105-7.374v-2.459C410.2,166.272,406.751,166.918,403.129,166.918z"/>
</g>
<path fill="#4677AE" d="M234.174,13.535h-56.299c-3.376,0-6.118,2.734-6.118,6.107v27.815
	c-0.376,30.958-13.365,43.639-44.331,43.288H98.841c-3.369,0-6.103,2.73-6.103,6.106v56.303c0,3.38,2.734,6.107,6.103,6.107h56.315
	c3.376,0,6.103-2.727,6.103-6.107v-27.811c0.377-30.965,13.372-43.647,44.364-43.286l0,0h28.553c3.384,0,6.11-2.73,6.11-6.114
	V19.641C240.285,16.269,237.558,13.535,234.174,13.535z"/>
<path fill="#005596" d="M141.644,0H85.344c-3.384,0-6.11,2.734-6.11,6.107v27.791c-0.409,30.945-13.38,43.662-44.231,43.361H6.122
	C2.738,77.259,0,80,0,83.369v56.307c0,3.38,2.738,6.11,6.122,6.11h56.292c3.369,0,6.11-2.73,6.11-6.11v-27.791
	c0.409-30.967,13.395-43.68,44.287-43.363h28.833c3.376,0,6.11-2.73,6.11-6.114V6.107C147.754,2.734,145.02,0,141.644,0z"/>
</svg>
